<svg xmlns="http://www.w3.org/2000/svg" xmlns:xlink="http://www.w3.org/1999/xlink"><defs><style>
    .sprite-symbol-usage {display: none;}
    .sprite-symbol-usage:target {display: inline;}
  </style><symbol viewBox="0 0 6 10" id="arrow_sidebar"><path d="M1 10c-.26 0-.51-.1-.71-.29a.996.996 0 0 1 0-1.41l3.29-3.29-3.29-3.3C-.1 1.32-.1.68.29.29s1.03-.39 1.42 0l4 4c.39.39.39 1.02 0 1.41l-4 4.01c-.2.2-.45.29-.71.29Z" fill="#9197b3" /></symbol><symbol viewBox="0 0 21.5 21.5" id="customers"><style>#customers .st0{fill:#fff}</style><path class="st0" d="M13.8 21.5h-6c-1.3 0-2.4-.1-3.4-.4-.3-.1-.6-.4-.5-.8.2-3 3.3-5.3 6.9-5.3 3.6 0 6.6 2.3 6.9 5.3 0 .4-.2.7-.5.8-1 .3-2.1.4-3.4.4zm-8.3-1.7c.6.1 1.4.2 2.3.2h6c.9 0 1.6-.1 2.3-.2-.5-1.9-2.7-3.3-5.3-3.3-2.6 0-4.8 1.4-5.3 3.3zM10.7 13.7c-2.4 0-4.3-1.9-4.3-4.3 0-2.5 2-4.4 4.3-4.4C13.1 5 15 6.9 15 9.3c.1 2.4-1.9 4.4-4.3 4.4zm0-7.2c-1.6 0-2.8 1.3-2.8 2.8 0 1.6 1.3 2.8 2.8 2.8s2.8-1.3 2.8-2.8c.1-1.5-1.2-2.8-2.8-2.8z" /><path d="M13.8.8h-6c-5 0-7 2-7 7v6c0 3.8 1.1 5.9 3.9 6.6.2-2.6 2.9-4.7 6.1-4.7s5.9 2.1 6.1 4.7c2.7-.8 3.9-2.8 3.9-6.6v-6c0-5-2-7-7-7zm-3 12.1c-2 0-3.6-1.6-3.6-3.6s1.6-3.6 3.6-3.6 3.6 1.6 3.6 3.6c-.1 2-1.7 3.6-3.6 3.6z" /><path class="st0" d="M4.6 21.1h-.2c-3-.9-4.4-3.2-4.4-7.3v-6C0 2.3 2.3 0 7.8 0h6c5.4 0 7.8 2.3 7.8 7.8v6c0 4.2-1.4 6.5-4.4 7.3-.2.1-.4 0-.6-.1-.2-.1-.3-.3-.3-.6-.2-2.2-2.6-4-5.4-4s-5.2 1.7-5.4 4c0 .2-.1.4-.3.6-.3.1-.4.1-.6.1zm6.2-6.1c3.2 0 6 1.9 6.7 4.4 1.8-.8 2.5-2.6 2.5-5.6v-6c0-4.6-1.6-6.2-6.2-6.2h-6c-4.6 0-6.2 1.6-6.2 6.2v6c0 3.1.8 4.8 2.5 5.6.7-2.6 3.4-4.4 6.7-4.4zm0-1.3c-2.4 0-4.3-1.9-4.3-4.3C6.4 6.9 8.4 5 10.8 5s4.3 1.9 4.3 4.3-2 4.4-4.3 4.4zm0-7.2C9.2 6.5 8 7.8 8 9.3c0 1.6 1.3 2.8 2.8 2.8s2.8-1.3 2.8-2.8c0-1.5-1.3-2.8-2.8-2.8z" /></symbol><symbol viewBox="0 0 21.5 21.5" id="dashboard"><path d="M13.75 21.5h-6C2.32 21.5 0 19.18 0 13.75v-6C0 2.32 2.32 0 7.75 0h6c5.43 0 7.75 2.32 7.75 7.75v6c0 5.43-2.32 7.75-7.75 7.75Zm-6-20C3.14 1.5 1.5 3.14 1.5 7.75v6C1.5 18.36 3.14 20 7.75 20h6c4.61 0 6.25-1.64 6.25-6.25v-6c0-4.61-1.64-6.25-6.25-6.25h-6ZM7.55 17c-.07 0-.15 0-.22-.02l-1.19-.16c-.72-.09-1.35-.71-1.46-1.45l-.16-1.21c-.07-.46.13-1.07.47-1.43l2.29-2.29c-.34-1.62.15-3.3 1.33-4.48 1.91-1.91 5.03-1.91 6.95 0 .93.92 1.44 2.15 1.44 3.46s-.51 2.55-1.43 3.48a4.903 4.903 0 0 1-4.49 1.34l-2.29 2.28c-.28.3-.78.5-1.24.5Zm4.53-10.98c-.87 0-1.75.33-2.41 1-.9.9-1.22 2.21-.84 3.43.08.27 0 .55-.19.75l-2.58 2.58s-.06.14-.06.19l.16 1.2c0 .06.12.17.17.18l1.2.16s.15-.03.19-.05l2.59-2.58c.2-.2.49-.26.75-.18 1.21.38 2.52.06 3.42-.84.64-.65 1-1.51 1-2.42s-.35-1.76-.99-2.4c-.67-.66-1.55-1-2.42-1Zm2.95 6.34Zm-5.3 3.2c.29-.29.3-.77 0-1.06l-.85-.86a.745.745 0 0 0-1.06 0c-.29.29-.3.77 0 1.06l.85.86c.15.15.34.22.53.22s.38-.07.53-.22Zm3.43-6.11c0-.55-.45-1-1-1s-1 .45-1 1 .45 1 1 1 1-.45 1-1Z" fill="#9197b3" /></symbol><symbol fill="none" viewBox="0 0 22 22" id="help"><path d="M7 21.32c-.28 0-.57-.07-.83-.21-.57-.3-.92-.9-.92-1.54v-1.42c-3.02-.31-5-2.53-5-5.71v-6C.25 3 2.56.69 6 .69h10c3.44 0 5.75 2.31 5.75 5.75v6c0 3.44-2.31 5.75-5.75 5.75h-3.77l-4.26 2.84c-.29.19-.63.29-.97.29ZM6 2.18c-2.58 0-4.25 1.67-4.25 4.25v6c0 2.58 1.67 4.25 4.25 4.25.41 0 .75.34.75.75v2.13c0 .13.08.19.13.22s.15.06.26-.01l4.45-2.96c.12-.08.27-.13.42-.13h4c2.58 0 4.25-1.67 4.25-4.25v-6c0-2.58-1.67-4.25-4.25-4.25H6Z" fill="#9197B3" /><path d="M11 11.11c-.41 0-.75-.34-.75-.75v-.21c0-1.16.85-1.73 1.17-1.95.37-.25.49-.42.49-.68 0-.5-.41-.91-.91-.91s-.91.41-.91.91c0 .41-.34.75-.75.75s-.75-.34-.75-.75c0-1.33 1.08-2.41 2.41-2.41s2.41 1.08 2.41 2.41c0 1.14-.84 1.71-1.15 1.92-.39.26-.51.43-.51.71v.21c0 .42-.34.75-.75.75ZM11 13.6a.749.749 0 1 1-.002-1.498A.749.749 0 0 1 11 13.6Z" fill="#9197B3" /></symbol><symbol fill="none" viewBox="0 0 22 21" id="income"><path d="M9.752 14.86v2.03c0 1.72-1.6 3.11-3.57 3.11-1.97 0-3.58-1.39-3.58-3.11v-2.03c0 1.72 1.6 2.94 3.58 2.94 1.97 0 3.57-1.23 3.57-2.94Z" stroke="#9197B3" stroke-width="1.5" stroke-linecap="round" stroke-linejoin="round" /><path d="M9.75 12.11c0 .5-.14.96-.38 1.36-.59.97-1.8 1.58-3.2 1.58-1.4 0-2.61-.62-3.2-1.58-.24-.4-.38-.86-.38-1.36 0-.86.4-1.63 1.04-2.19.65-.57 1.54-.91 2.53-.91.99 0 1.88.35 2.53.91.66.55 1.06 1.33 1.06 2.19Z" stroke="#9197B3" stroke-width="1.5" stroke-linecap="round" stroke-linejoin="round" /><path d="M9.752 12.11v2.75c0 1.72-1.6 2.94-3.57 2.94-1.97 0-3.58-1.23-3.58-2.94v-2.75c0-1.72 1.6-3.11 3.58-3.11.99 0 1.88.35 2.53.91.64.56 1.04 1.34 1.04 2.2ZM21 8.97v2.06c0 .55-.44 1-1 1.02h-1.96c-1.08 0-2.07-.79-2.16-1.87-.06-.63.18-1.22.6-1.63.37-.38.88-.6 1.44-.6H20c.56.02 1 .47 1 1.02Z" stroke="#9197B3" stroke-width="1.5" stroke-linecap="round" stroke-linejoin="round" /><path d="M1 8.5v-2c0-2.72 1.64-4.62 4.19-4.94.26-.04.53-.06.81-.06h9c.26 0 .51.01.75.05C18.33 1.85 20 3.76 20 6.5v1.45h-2.08c-.56 0-1.07.22-1.44.6-.42.41-.66 1-.6 1.63.09 1.08 1.08 1.87 2.16 1.87H20v1.45c0 3-2 5-5 5h-2.5" stroke="#9197B3" stroke-width="1.5" stroke-linecap="round" stroke-linejoin="round" /></symbol><symbol fill="none" viewBox="0 0 31 33" id="logo"><path d="M15.5 32.888c-1.033 0-2.081-.232-2.898-.71l-8.48-4.887C.67 24.963.455 24.61.455 20.955v-8.91c0-3.654.2-4.01 3.592-6.306l8.54-4.933c1.62-.94 4.163-.94 5.782 0l8.51 4.902c3.453 2.328 3.669 2.683 3.669 6.336v8.896c0 3.653-.2 4.008-3.592 6.305l-8.541 4.933c-.833.478-1.88.71-2.914.71Zm0-30.464c-.647 0-1.28.124-1.726.386l-8.48 4.902c-2.512 1.696-2.512 1.696-2.512 4.332v8.896c0 2.636 0 2.636 2.574 4.378l8.418 4.856c.91.524 2.559.524 3.468 0l8.48-4.902c2.497-1.696 2.497-1.696 2.497-4.332v-8.896c0-2.636 0-2.636-2.575-4.378L17.227 2.81c-.447-.262-1.08-.386-1.727-.386Z" fill="#000" /><path d="M15.5 22.281A5.783 5.783 0 0 1 9.719 16.5a5.783 5.783 0 0 1 5.781-5.781 5.783 5.783 0 0 1 5.781 5.781 5.783 5.783 0 0 1-5.781 5.781Zm0-9.25a3.474 3.474 0 0 0-3.469 3.469 3.474 3.474 0 0 0 3.469 3.469 3.474 3.474 0 0 0 3.469-3.469 3.474 3.474 0 0 0-3.469-3.469Z" fill="#000" /></symbol><symbol fill="none" viewBox="0 0 22 22" id="product"><path d="M14 21.75H8C2.57 21.75.25 19.43.25 14V8C.25 2.57 2.57.25 8 .25h6c5.43 0 7.75 2.32 7.75 7.75v6c0 5.43-2.32 7.75-7.75 7.75Zm-6-20C3.39 1.75 1.75 3.39 1.75 8v6c0 4.61 1.64 6.25 6.25 6.25h6c4.61 0 6.25-1.64 6.25-6.25V8c0-4.61-1.64-6.25-6.25-6.25H8Z" fill="#9197B3" /><path d="M11 12.08c-.13 0-.26-.03-.38-.1l-5.3-3.06a.742.742 0 0 1-.27-1.02c.21-.36.67-.48 1.02-.27l4.92 2.85 4.89-2.83c.36-.21.82-.08 1.02.27.2.35.08.82-.27 1.02l-5.26 3.04c-.11.06-.24.1-.37.1Z" fill="#9197B3" /><path d="M11 17.52c-.41 0-.75-.34-.75-.75v-5.44c0-.41.34-.75.75-.75s.75.34.75.75v5.44c0 .41-.34.75-.75.75Z" fill="#9197B3" /><path d="M11 17.75c-.58 0-1.15-.13-1.61-.38l-3.2-1.78c-.96-.53-1.7-1.8-1.7-2.9V9.3c0-1.09.75-2.36 1.7-2.9l3.2-1.78c.92-.51 2.3-.51 3.22 0l3.2 1.78c.96.53 1.7 1.8 1.7 2.9v3.39c0 1.09-.75 2.36-1.7 2.9l-3.2 1.78c-.46.26-1.03.38-1.61.38Zm0-12c-.33 0-.65.06-.88.19l-3.2 1.78c-.49.27-.93 1.03-.93 1.58v3.39c0 .56.44 1.31.93 1.58l3.2 1.78c.46.26 1.3.26 1.76 0l3.2-1.78c.49-.27.93-1.03.93-1.58V9.3c0-.56-.44-1.31-.93-1.58l-3.2-1.78c-.23-.13-.55-.19-.88-.19Z" fill="#9197B3" /></symbol><symbol fill="none" viewBox="0 0 22 22" id="promote"><path d="M11 21.75c-.63 0-1.22-.24-1.66-.69l-1.52-1.52c-.12-.12-.44-.25-.6-.25H5.06c-1.3 0-2.35-1.05-2.35-2.35v-2.16c0-.16-.13-.48-.25-.6L.94 12.66C.5 12.22.25 11.63.25 11c0-.63.24-1.22.69-1.66l1.52-1.52c.12-.12.25-.44.25-.6V5.06c0-1.3 1.05-2.35 2.35-2.35h2.16c.16 0 .48-.13.6-.25L9.34.94c.88-.88 2.44-.88 3.32 0l1.52 1.52c.12.12.44.25.6.25h2.16c1.3 0 2.35 1.05 2.35 2.35v2.16c0 .16.13.48.25.6l1.52 1.52c.44.44.69 1.03.69 1.66 0 .63-.24 1.22-.69 1.66l-1.52 1.52c-.12.12-.25.44-.25.6v2.16c0 1.3-1.05 2.35-2.35 2.35h-2.16c-.16 0-.48.13-.6.25l-1.52 1.52c-.44.45-1.03.69-1.66.69Zm-7.48-8.63c.4.4.69 1.1.69 1.66v2.16c0 .47.38.85.85.85h2.16c.56 0 1.26.29 1.66.69L10.4 20c.32.32.88.32 1.2 0l1.52-1.52c.4-.4 1.1-.69 1.66-.69h2.16c.47 0 .85-.38.85-.85v-2.16c0-.56.29-1.26.69-1.66L20 11.6a.84.84 0 0 0 .25-.6c0-.23-.09-.44-.25-.6l-1.52-1.52c-.4-.4-.69-1.1-.69-1.66V5.06a.85.85 0 0 0-.85-.85h-2.16c-.56 0-1.26-.29-1.66-.69L11.6 2a.87.87 0 0 0-1.2 0L8.88 3.52c-.4.4-1.1.69-1.66.69H5.06a.85.85 0 0 0-.85.85v2.16c0 .56-.29 1.26-.69 1.66L2 10.4c-.16.16-.25.37-.25.6 0 .23.09.44.25.6l1.52 1.52Z" fill="#9197B3" /><path d="M14 15c-.56 0-1.01-.45-1.01-1s.45-1 1-1 1 .45 1 1-.44 1-.99 1ZM8.01 9C7.45 9 7 8.55 7 8s.45-1 1-1 1 .45 1 1-.44 1-.99 1ZM8 14.75c-.19 0-.38-.07-.53-.22a.754.754 0 0 1 0-1.06l6-6c.29-.29.77-.29 1.06 0 .29.29.29.77 0 1.06l-6 6c-.15.15-.34.22-.53.22Z" fill="#9197B3" /></symbol><symbol fill="none" viewBox="0 0 20 20" id="search"><path d="M9 17A8 8 0 1 0 9 1a8 8 0 0 0 0 16ZM19 19l-4.35-4.35" stroke="#7E7E7E" stroke-width="2" stroke-linecap="round" stroke-linejoin="round" /></symbol></defs><use id="arrow_sidebar-usage" xlink:href="#arrow_sidebar" class="sprite-symbol-usage" /><use id="customers-usage" xlink:href="#customers" class="sprite-symbol-usage" /><use id="dashboard-usage" xlink:href="#dashboard" class="sprite-symbol-usage" /><use id="help-usage" xlink:href="#help" class="sprite-symbol-usage" /><use id="income-usage" xlink:href="#income" class="sprite-symbol-usage" /><use id="logo-usage" xlink:href="#logo" class="sprite-symbol-usage" /><use id="product-usage" xlink:href="#product" class="sprite-symbol-usage" /><use id="promote-usage" xlink:href="#promote" class="sprite-symbol-usage" /><use id="search-usage" xlink:href="#search" class="sprite-symbol-usage" /></svg>