<svg xmlns="http://www.w3.org/2000/svg" xmlns:xlink="http://www.w3.org/1999/xlink"><defs><style>
    .sprite-symbol-usage {display: none;}
    .sprite-symbol-usage:target {display: inline;}
  </style><symbol viewBox="0 0 6 10" id="arrow_sidebar"><path d="M1 10c-.26 0-.51-.1-.71-.29a.996.996 0 0 1 0-1.41l3.29-3.29-3.29-3.3C-.1 1.32-.1.68.29.29s1.03-.39 1.42 0l4 4c.39.39.39 1.02 0 1.41l-4 4.01c-.2.2-.45.29-.71.29Z" fill="currentColor" /></symbol><symbol viewBox="0 0 21.5 21.5" id="customers"><path d="M13.75 0h-6C2.32 0 0 2.32 0 7.75v6c0 4.16 1.4 6.49 4.41 7.34h.01c.93.28 2.02.41 3.33.41h6c1.32 0 2.41-.13 3.34-.41h.01c3-.86 4.4-3.19 4.4-7.34v-6C21.5 2.32 19.18 0 13.75 0Zm-6 20c-.86 0-1.61-.06-2.26-.19 0-.03.01-.07.02-.1.03-.1.08-.2.12-.3.06-.15.12-.29.2-.43.05-.09.11-.18.18-.27a3.68 3.68 0 0 1 .53-.63c.12-.12.25-.23.39-.34l.27-.21c.15-.1.3-.19.46-.28.1-.06.2-.12.31-.17.17-.08.35-.15.53-.22.11-.04.22-.09.33-.12.21-.06.42-.11.64-.15.1-.02.2-.05.3-.06.32-.05.65-.08.99-.08s.67.03 1 .08c.1.01.19.04.28.06.22.04.44.09.65.15.11.03.21.08.32.11a9 9 0 0 1 .55.22 7.638 7.638 0 0 1 .78.45c.09.06.17.13.26.19.14.11.28.23.4.36.07.07.14.15.21.22.12.13.22.27.32.41.06.08.11.16.16.25.08.15.15.3.21.45.04.09.08.18.11.28.01.03.01.07.02.1-.66.13-1.4.19-2.26.19H7.75ZM20 13.75c0 3.06-.77 4.79-2.54 5.61 0-.01-.01-.03-.02-.04-.08-.28-.19-.55-.33-.81-.02-.04-.04-.09-.07-.13-.14-.26-.29-.5-.47-.74-.03-.03-.05-.06-.08-.1-.19-.24-.4-.47-.63-.69l-.02-.02c-.24-.22-.5-.42-.78-.61-.02-.01-.03-.02-.05-.03-.27-.18-.56-.34-.86-.48-.04-.02-.08-.04-.11-.05-.3-.14-.61-.25-.93-.35-.05-.01-.09-.03-.14-.04-.33-.09-.66-.17-1-.22-.04 0-.08 0-.12-.01-.36-.05-.73-.08-1.11-.08s-.74.03-1.1.08c-.04 0-.09 0-.13.02-.34.05-.66.13-.98.22-.06.02-.11.03-.17.05-.31.1-.61.21-.9.34-.05.02-.1.05-.15.07-.29.14-.57.29-.83.46-.03.02-.06.04-.08.06-.26.17-.5.36-.73.57-.02.02-.04.03-.05.04-.23.21-.43.44-.62.67a5.844 5.844 0 0 0-.56.84l-.06.12c-.13.26-.24.54-.33.82 0 .01-.01.02-.01.03-1.77-.82-2.54-2.55-2.54-5.61V7.75c0-4.61 1.64-6.25 6.25-6.25h6C18.36 1.5 20 3.14 20 7.75v6Z" fill="currentColor" /><path d="M11.37 5.06c-.2-.03-.41-.06-.62-.06-.17 0-.34.03-.5.05-2.15.25-3.83 2.06-3.83 4.28 0 .3.03.59.09.87.4 1.98 2.15 3.47 4.24 3.47a4.34 4.34 0 0 0 4.33-4.34c0-.29-.03-.57-.09-.84-.35-1.79-1.81-3.16-3.63-3.43ZM7.92 9.33c0-1.56 1.27-2.83 2.83-2.83s2.83 1.27 2.83 2.83a2.86 2.86 0 0 1-1.99 2.7c-.27.08-.55.14-.84.14-.26 0-.5-.05-.74-.11a2.835 2.835 0 0 1-2.09-2.73Z" fill="currentColor" /></symbol><symbol viewBox="0 0 21.5 21.5" id="dashboard"><path d="M7.82 13.64c-.29.29-.3.77 0 1.06l.33.33 1.06-1.06-.33-.33a.745.745 0 0 0-1.06 0Z" fill="currentColor" /><circle cx="12.16" cy="9.45" r="1" fill="currentColor" /><path d="M8.61 5.96a4.897 4.897 0 0 0-1.33 4.48l-2.29 2.29c-.34.36-.54.97-.47 1.43l.16 1.21c.11.74.74 1.36 1.46 1.45l1.19.16c.07.02.15.02.22.02v.02c.46 0 .96-.2 1.24-.5l2.29-2.28c1.62.34 3.3-.15 4.49-1.34.92-.93 1.43-2.17 1.43-3.48s-.51-2.54-1.44-3.46c-1.92-1.91-5.04-1.91-6.95 0Zm5.87 5.9c-.9.9-2.21 1.22-3.42.84a.746.746 0 0 0-.75.18l-1.1 1.09.52.53c.3.29.29.77 0 1.06-.15.15-.34.22-.53.22s-.38-.07-.53-.22l-.52-.53-.43.43-.19.05-1.2-.16s-.17-.12-.17-.18L6 13.97l.06-.19 2.58-2.58c.19-.2.27-.48.19-.75-.38-1.22-.06-2.53.84-3.43.66-.67 1.54-1 2.41-1v.02c.86 0 1.74.34 2.41 1 .64.64.99 1.49.99 2.4s-.36 1.77-1 2.42Z" fill="currentColor" /><path d="M13.75 0h-6C2.32 0 0 2.32 0 7.75v6c0 5.43 2.32 7.75 7.75 7.75h6c5.43 0 7.75-2.32 7.75-7.75v-6C21.5 2.32 19.18 0 13.75 0ZM20 13.75c0 4.61-1.64 6.25-6.25 6.25h-6c-4.61 0-6.25-1.64-6.25-6.25v-6c0-4.61 1.64-6.25 6.25-6.25h6C18.36 1.5 20 3.14 20 7.75v6Z" fill="currentColor" /></symbol><symbol fill="none" viewBox="0 0 22 22" id="help"><path d="M7 21.32c-.28 0-.57-.07-.83-.21-.57-.3-.92-.9-.92-1.54v-1.42c-3.02-.31-5-2.53-5-5.71v-6C.25 3 2.56.69 6 .69h10c3.44 0 5.75 2.31 5.75 5.75v6c0 3.44-2.31 5.75-5.75 5.75h-3.77l-4.26 2.84c-.29.19-.63.29-.97.29ZM6 2.18c-2.58 0-4.25 1.67-4.25 4.25v6c0 2.58 1.67 4.25 4.25 4.25.41 0 .75.34.75.75v2.13c0 .13.08.19.13.22s.15.06.26-.01l4.45-2.96c.12-.08.27-.13.42-.13h4c2.58 0 4.25-1.67 4.25-4.25v-6c0-2.58-1.67-4.25-4.25-4.25H6Z" fill="currentColor" /><path d="M11 11.11c-.41 0-.75-.34-.75-.75v-.21c0-1.16.85-1.73 1.17-1.95.37-.25.49-.42.49-.68 0-.5-.41-.91-.91-.91s-.91.41-.91.91c0 .41-.34.75-.75.75s-.75-.34-.75-.75c0-1.33 1.08-2.41 2.41-2.41s2.41 1.08 2.41 2.41c0 1.14-.84 1.71-1.15 1.92-.39.26-.51.43-.51.71v.21c0 .42-.34.75-.75.75ZM11 13.6a.749.749 0 1 1-.002-1.498A.749.749 0 0 1 11 13.6Z" fill="currentColor" /></symbol><symbol viewBox="0 0 21.5 20" id="income"><path d="M5.93 7.5c-.85 0-1.64.23-2.31.61-.03.02-.07.03-.1.05-.04.02-.07.05-.1.07-.19.12-.37.24-.54.38-.84.73-1.3 1.71-1.3 2.75 0 .06 0 .11.01.17V16.14c0 2.13 1.94 3.86 4.33 3.86s4.32-1.73 4.32-3.86V11.36c0-1.05-.46-2.03-1.3-2.77-.82-.7-1.89-1.09-3.02-1.09Zm0 11c-1.14 0-2.13-.57-2.58-1.38.26.16.56.29.87.39h.02c.23.09.47.15.72.19.04 0 .09.02.13.03.27.04.55.07.84.07s.55-.03.82-.07c.08-.01.16-.03.24-.05.18-.04.36-.08.53-.13.08-.03.16-.05.24-.08.17-.06.33-.14.49-.22.06-.03.13-.06.18-.09.02-.01.05-.02.07-.04-.45.81-1.43 1.38-2.57 1.38Zm1.6-2.56c-.45.23-1 .36-1.6.36s-1.15-.13-1.6-.36c-.72-.37-1.18-1-1.22-1.74.77.54 1.75.86 2.81.86s2.06-.32 2.82-.87c-.03.75-.49 1.38-1.21 1.75Zm.95-3.61c-.46.75-1.44 1.22-2.56 1.22s-2.1-.47-2.56-1.22a1.8 1.8 0 0 1-.26-.89v-.08c0-.65.32-1.24.83-1.66.01 0 .02-.02.03-.02.12-.1.25-.19.39-.27.02 0 .04-.02.05-.02.13-.07.27-.14.41-.19.34-.12.71-.18 1.09-.18.77 0 1.5.26 2.05.74.51.42.79 1 .79 1.61 0 .34-.09.67-.27.97Z" fill="currentColor" /><path d="M20.5 6.64v-.89c0-3.11-1.93-5.35-4.88-5.69a5.39 5.39 0 0 0-.87-.06h-9c-.32 0-.63.02-.9.07C1.9.44 0 2.67 0 5.75v2c0 .41.34.75.75.75s.75-.34.75-.75v-2c0-2.31 1.35-3.92 3.55-4.2.22-.03.46-.05.7-.05h9c.22 0 .43 0 .66.05 2.21.26 3.59 1.87 3.59 4.2v.7h-1.33c-.19 0-.37.02-.55.05-.26.05-.51.15-.74.28-.24.13-.48.28-.67.48-.2.2-.36.43-.49.67-.26.48-.39 1.01-.34 1.56.12 1.43 1.4 2.56 2.91 2.56H19v.7c0 2.58-1.67 4.25-4.25 4.25h-2.5c-.41 0-.75.34-.75.75s.34.75.75.75h2.5c3.44 0 5.75-2.31 5.75-5.75v-.88c.59-.29 1-.89 1-1.59V8.22c0-.7-.4-1.29-1-1.58Zm-.5 3.64c0 .15-.12.26-.25.27h-1.96c-.72 0-1.36-.53-1.41-1.19-.04-.38.1-.75.39-1.04.23-.24.55-.37.9-.37h2.05c.15 0 .28.12.28.27v2.06Z" fill="currentColor" /></symbol><symbol fill="none" viewBox="0 0 31 33" id="logo"><path d="M15.5 32.888c-1.033 0-2.081-.232-2.898-.71l-8.48-4.887C.67 24.963.455 24.61.455 20.955v-8.91c0-3.654.2-4.01 3.592-6.306l8.54-4.933c1.62-.94 4.163-.94 5.782 0l8.51 4.902c3.453 2.328 3.669 2.683 3.669 6.336v8.896c0 3.653-.2 4.008-3.592 6.305l-8.541 4.933c-.833.478-1.88.71-2.914.71Zm0-30.464c-.647 0-1.28.124-1.726.386l-8.48 4.902c-2.512 1.696-2.512 1.696-2.512 4.332v8.896c0 2.636 0 2.636 2.574 4.378l8.418 4.856c.91.524 2.559.524 3.468 0l8.48-4.902c2.497-1.696 2.497-1.696 2.497-4.332v-8.896c0-2.636 0-2.636-2.575-4.378L17.227 2.81c-.447-.262-1.08-.386-1.727-.386Z" fill="currentColor" /><path d="M15.5 22.281A5.783 5.783 0 0 1 9.719 16.5a5.783 5.783 0 0 1 5.781-5.781 5.783 5.783 0 0 1 5.781 5.781 5.783 5.783 0 0 1-5.781 5.781Zm0-9.25a3.474 3.474 0 0 0-3.469 3.469 3.474 3.474 0 0 0 3.469 3.469 3.474 3.474 0 0 0 3.469-3.469 3.474 3.474 0 0 0-3.469-3.469Z" fill="currentColor" /></symbol><symbol fill="none" viewBox="0 0 22 22" id="product"><path d="M14 21.75H8C2.57 21.75.25 19.43.25 14V8C.25 2.57 2.57.25 8 .25h6c5.43 0 7.75 2.32 7.75 7.75v6c0 5.43-2.32 7.75-7.75 7.75Zm-6-20C3.39 1.75 1.75 3.39 1.75 8v6c0 4.61 1.64 6.25 6.25 6.25h6c4.61 0 6.25-1.64 6.25-6.25V8c0-4.61-1.64-6.25-6.25-6.25H8Z" fill="currentColor" /><path d="M11 12.08c-.13 0-.26-.03-.38-.1l-5.3-3.06a.742.742 0 0 1-.27-1.02c.21-.36.67-.48 1.02-.27l4.92 2.85 4.89-2.83c.36-.21.82-.08 1.02.27.2.35.08.82-.27 1.02l-5.26 3.04c-.11.06-.24.1-.37.1Z" fill="currentColor" /><path d="M11 17.52c-.41 0-.75-.34-.75-.75v-5.44c0-.41.34-.75.75-.75s.75.34.75.75v5.44c0 .41-.34.75-.75.75Z" fill="currentColor" /><path d="M11 17.75c-.58 0-1.15-.13-1.61-.38l-3.2-1.78c-.96-.53-1.7-1.8-1.7-2.9V9.3c0-1.09.75-2.36 1.7-2.9l3.2-1.78c.92-.51 2.3-.51 3.22 0l3.2 1.78c.96.53 1.7 1.8 1.7 2.9v3.39c0 1.09-.75 2.36-1.7 2.9l-3.2 1.78c-.46.26-1.03.38-1.61.38Zm0-12c-.33 0-.65.06-.88.19l-3.2 1.78c-.49.27-.93 1.03-.93 1.58v3.39c0 .56.44 1.31.93 1.58l3.2 1.78c.46.26 1.3.26 1.76 0l3.2-1.78c.49-.27.93-1.03.93-1.58V9.3c0-.56-.44-1.31-.93-1.58l-3.2-1.78c-.23-.13-.55-.19-.88-.19Z" fill="currentColor" /></symbol><symbol fill="none" viewBox="0 0 22 22" id="promote"><path d="M11 21.75c-.63 0-1.22-.24-1.66-.69l-1.52-1.52c-.12-.12-.44-.25-.6-.25H5.06c-1.3 0-2.35-1.05-2.35-2.35v-2.16c0-.16-.13-.48-.25-.6L.94 12.66C.5 12.22.25 11.63.25 11c0-.63.24-1.22.69-1.66l1.52-1.52c.12-.12.25-.44.25-.6V5.06c0-1.3 1.05-2.35 2.35-2.35h2.16c.16 0 .48-.13.6-.25L9.34.94c.88-.88 2.44-.88 3.32 0l1.52 1.52c.12.12.44.25.6.25h2.16c1.3 0 2.35 1.05 2.35 2.35v2.16c0 .16.13.48.25.6l1.52 1.52c.44.44.69 1.03.69 1.66 0 .63-.24 1.22-.69 1.66l-1.52 1.52c-.12.12-.25.44-.25.6v2.16c0 1.3-1.05 2.35-2.35 2.35h-2.16c-.16 0-.48.13-.6.25l-1.52 1.52c-.44.45-1.03.69-1.66.69Zm-7.48-8.63c.4.4.69 1.1.69 1.66v2.16c0 .47.38.85.85.85h2.16c.56 0 1.26.29 1.66.69L10.4 20c.32.32.88.32 1.2 0l1.52-1.52c.4-.4 1.1-.69 1.66-.69h2.16c.47 0 .85-.38.85-.85v-2.16c0-.56.29-1.26.69-1.66L20 11.6a.84.84 0 0 0 .25-.6c0-.23-.09-.44-.25-.6l-1.52-1.52c-.4-.4-.69-1.1-.69-1.66V5.06a.85.85 0 0 0-.85-.85h-2.16c-.56 0-1.26-.29-1.66-.69L11.6 2a.87.87 0 0 0-1.2 0L8.88 3.52c-.4.4-1.1.69-1.66.69H5.06a.85.85 0 0 0-.85.85v2.16c0 .56-.29 1.26-.69 1.66L2 10.4c-.16.16-.25.37-.25.6 0 .23.09.44.25.6l1.52 1.52Z" fill="currentColor" /><path d="M14 15c-.56 0-1.01-.45-1.01-1s.45-1 1-1 1 .45 1 1-.44 1-.99 1ZM8.01 9C7.45 9 7 8.55 7 8s.45-1 1-1 1 .45 1 1-.44 1-.99 1ZM8 14.75c-.19 0-.38-.07-.53-.22a.754.754 0 0 1 0-1.06l6-6c.29-.29.77-.29 1.06 0 .29.29.29.77 0 1.06l-6 6c-.15.15-.34.22-.53.22Z" fill="currentColor" /></symbol><symbol viewBox="0 0 20 20" id="search"><path d="m19.71 18.29-3.68-3.68A8.963 8.963 0 0 0 18 9c0-4.96-4.04-9-9-9S0 4.04 0 9s4.04 9 9 9c2.12 0 4.07-.74 5.61-1.98l3.68 3.68c.2.2.45.29.71.29s.51-.1.71-.29a.996.996 0 0 0 0-1.41ZM2 9c0-3.86 3.14-7 7-7s7 3.14 7 7c0 1.92-.78 3.66-2.04 4.93 0 0-.01 0-.02.01s0 .01-.01.02A6.98 6.98 0 0 1 9 16c-3.86 0-7-3.14-7-7Z" fill="currentColor" /></symbol></defs><use id="arrow_sidebar-usage" xlink:href="#arrow_sidebar" class="sprite-symbol-usage" /><use id="customers-usage" xlink:href="#customers" class="sprite-symbol-usage" /><use id="dashboard-usage" xlink:href="#dashboard" class="sprite-symbol-usage" /><use id="help-usage" xlink:href="#help" class="sprite-symbol-usage" /><use id="income-usage" xlink:href="#income" class="sprite-symbol-usage" /><use id="logo-usage" xlink:href="#logo" class="sprite-symbol-usage" /><use id="product-usage" xlink:href="#product" class="sprite-symbol-usage" /><use id="promote-usage" xlink:href="#promote" class="sprite-symbol-usage" /><use id="search-usage" xlink:href="#search" class="sprite-symbol-usage" /></svg>