<?xml version="1.0" encoding="UTF-8"?><svg id="a" xmlns="http://www.w3.org/2000/svg" viewBox="0 0 21.5 21.5"><path d="M13.75,21.5H7.75c-5.43,0-7.75-2.32-7.75-7.75V7.75C0,2.32,2.32,0,7.75,0h6c5.43,0,7.75,2.32,7.75,7.75v6c0,5.43-2.32,7.75-7.75,7.75ZM7.75,1.5C3.14,1.5,1.5,3.14,1.5,7.75v6c0,4.61,1.64,6.25,6.25,6.25h6c4.61,0,6.25-1.64,6.25-6.25V7.75c0-4.61-1.64-6.25-6.25-6.25H7.75Zm-.2,15.5c-.07,0-.15,0-.22-.02l-1.19-.16c-.72-.09-1.35-.71-1.46-1.45l-.16-1.21c-.07-.46,.13-1.07,.47-1.43l2.29-2.29c-.34-1.62,.15-3.3,1.33-4.48,1.91-1.91,5.03-1.91,6.95,0,.93,.92,1.44,2.15,1.44,3.46s-.51,2.55-1.43,3.48h0c-1.19,1.19-2.87,1.68-4.49,1.34l-2.29,2.28c-.28,.3-.78,.5-1.24,.5ZM12.08,6.02c-.87,0-1.75,.33-2.41,1-.9,.9-1.22,2.21-.84,3.43,.08,.27,0,.55-.19,.75l-2.58,2.58s-.06,.14-.06,.19l.16,1.2c0,.06,.12,.17,.17,.18l1.2,.16s.15-.03,.19-.05l2.59-2.58c.2-.2,.49-.26,.75-.18,1.21,.38,2.52,.06,3.42-.84,.64-.65,1-1.51,1-2.42s-.35-1.76-.99-2.4c-.67-.66-1.55-1-2.42-1Zm2.95,6.34h0Zm-5.3,3.2c.29-.29,.3-.77,0-1.06l-.85-.86c-.29-.29-.77-.3-1.06,0-.29,.29-.3,.77,0,1.06l.85,.86c.15,.15,.34,.22,.53,.22s.38-.07,.53-.22Zm3.43-6.11c0-.55-.45-1-1-1h0c-.55,0-1,.45-1,1s.45,1,1,1,1-.45,1-1Z" fill="#9197b3"/></svg>